<svg xmlns="http://www.w3.org/2000/svg" viewBox="0 0 609.64 416.63"><defs><style>.cls-1{fill:#fff;}.cls-2{fill:#2196f3;}</style></defs><title>Recurso 3</title><g id="Capa_2" data-name="Capa 2"><g id="Capa_1-2" data-name="Capa 1"><path class="cls-1" d="M254,90.81c1-1.91,2-3.81,3-5.74,22.57-46.28,58.6-75.92,109.8-83.42,50-7.32,92.41,9.92,126.14,47.51,21.34,23.78,33.22,52.17,36.4,83.78,1.57,15.63,1.75,31.6-2.57,47-1.52,5.41-.06,7.53,5.14,9.58,39,15.33,65.74,42.11,74.84,83.84,14.78,67.75-28.29,133.25-99.49,141.88a112.69,112.69,0,0,1-13.09,1.08c-126.78,0-253.56.78-380.33-.33A114.17,114.17,0,0,1,1.41,317.84c-8-56.87,18.33-103.61,71.27-126.1,4.61-2,5-4.48,4.26-8.76C69,139.05,81.45,102.39,116.86,74.52c38-29.91,97.86-24.65,130.36,11.11A59.19,59.19,0,0,1,251.67,92Z"/><path class="cls-2" d="M351.9,312.42c6.52-.78,13.12-1.13,19.54-2.4,51.21-10.13,85-61.46,76.49-108.88-9.71-54.3-56.9-91.15-112.09-81.72-62.71,10.72-97.68,75.07-73.53,133.51,2.59,6.28,1.74,9.72-2.87,14.29Q229,297.43,199.27,328.31c-15.24,15.76-7,43,14.45,47.79,11.37,2.57,20.76-1.77,28.68-9.81,20-20.38,40.12-40.72,60-61.25,2.86-3,5.11-3.49,8.79-1.81A102.71,102.71,0,0,0,351.9,312.42Zm1.76-155.51c26.38-2.27,57.9,22.77,58.34,57.63.41,33-26.34,59-60.26,59-31.35.06-57.17-26.12-57.43-57.8C294,182.86,320.78,156,353.66,156.91Z"/></g></g></svg>