<svg xmlns="http://www.w3.org/2000/svg" xmlns:xlink="http://www.w3.org/1999/xlink" viewBox="0 0 351 62"><defs><style>.cls-1{fill:url(#Degradado_sin_nombre_27);}.cls-2{fill:#fff;}.cls-3{fill:#1aa978;}</style><linearGradient id="Degradado_sin_nombre_27" y1="31" x2="351" y2="31" gradientUnits="userSpaceOnUse"><stop offset="0" stop-color="#1ad099"/><stop offset="1" stop-color="#76d449"/></linearGradient></defs><title>Asset 5</title><g id="Layer_2" data-name="Layer 2"><g id="Capa_1" data-name="Capa 1"><rect class="cls-1" width="351" height="62" rx="31" ry="31"/><path class="cls-2" d="M68.6,33.79A5.89,5.89,0,0,1,67,38.19a6,6,0,0,1-4.42,1.55H58.9V28.32h4a6,6,0,0,1,4.25,1.4A5.32,5.32,0,0,1,68.6,33.79Zm-3.21.11a3.59,3.59,0,0,0-.62-2.33,2.28,2.28,0,0,0-1.89-.76H62v6.4h.68a2.49,2.49,0,0,0,2.07-.82A4,4,0,0,0,65.39,33.9Z"/><path class="cls-2" d="M81.65,34a6.18,6.18,0,0,1-1.41,4.39,6.43,6.43,0,0,1-8.27,0A6.17,6.17,0,0,1,70.54,34,6.12,6.12,0,0,1,72,29.64a5.44,5.44,0,0,1,4.14-1.5,5.41,5.41,0,0,1,4.13,1.49A6.17,6.17,0,0,1,81.65,34Zm-7.86,0c0,2.21.77,3.32,2.31,3.32a2,2,0,0,0,1.73-.81A4.37,4.37,0,0,0,78.4,34a4.43,4.43,0,0,0-.57-2.52,2,2,0,0,0-1.72-.82C74.56,30.67,73.79,31.79,73.79,34Z"/><path class="cls-2" d="M96.37,39.74H92.72l-1.09-5c-.06-.2-.14-.62-.25-1.24s-.19-1.14-.25-1.55c0,.34-.11.76-.2,1.26s-.19,1-.28,1.39-.47,2.13-1.13,5.12H85.87L83,28.32h3L87.26,34c.28,1.27.47,2.28.58,3,.06-.53.19-1.25.36-2.17s.34-1.66.49-2.26l1-4.32h2.86l1,4.32q.25,1,.51,2.4c.17.9.29,1.58.34,2,.07-.58.26-1.58.56-3l1.26-5.74h3Z"/><path class="cls-2" d="M111.85,39.74h-4l-4.18-8h-.07c.1,1.27.15,2.24.15,2.9v5.15H101V28.32h4l4.16,7.94h0c-.07-1.15-.11-2.08-.11-2.78V28.32h2.75Z"/><path class="cls-2" d="M114.64,39.74V28.32h3.09v8.93h4.4v2.49Z"/><path class="cls-2" d="M135,34a6.18,6.18,0,0,1-1.41,4.39,6.42,6.42,0,0,1-8.26,0A6.13,6.13,0,0,1,123.85,34a6.12,6.12,0,0,1,1.43-4.36,6.48,6.48,0,0,1,8.28,0A6.21,6.21,0,0,1,135,34Zm-7.86,0c0,2.21.77,3.32,2.31,3.32a2,2,0,0,0,1.74-.81,4.46,4.46,0,0,0,.56-2.51,4.43,4.43,0,0,0-.57-2.52,2,2,0,0,0-1.72-.82C127.88,30.67,127.1,31.79,127.1,34Z"/><path class="cls-2" d="M144.35,39.74l-.56-2.14h-3.71l-.58,2.14h-3.39l3.73-11.47H144l3.78,11.47Zm-1.2-4.67-.49-1.88c-.12-.41-.26-.95-.42-1.61s-.27-1.14-.33-1.43c0,.27-.14.71-.27,1.32s-.45,1.81-.92,3.6Z"/><path class="cls-2" d="M159,33.79a5.89,5.89,0,0,1-1.58,4.4A6,6,0,0,1,153,39.74h-3.7V28.32h3.95a6,6,0,0,1,4.25,1.4A5.32,5.32,0,0,1,159,33.79Zm-3.21.11a3.59,3.59,0,0,0-.62-2.33,2.27,2.27,0,0,0-1.88-.76h-.9v6.4h.68a2.49,2.49,0,0,0,2.07-.82A4,4,0,0,0,155.77,33.9Z"/><path class="cls-2" d="M169.9,32.55l2-4.23h3.34l-3.76,7v4.46h-3.11V35.37l-3.76-7h3.36Z"/><path class="cls-2" d="M187.45,34A6.18,6.18,0,0,1,186,38.4a6.42,6.42,0,0,1-8.26,0A6.13,6.13,0,0,1,176.34,34a6.12,6.12,0,0,1,1.43-4.36,6.48,6.48,0,0,1,8.28,0A6.21,6.21,0,0,1,187.45,34Zm-7.86,0c0,2.21.77,3.32,2.31,3.32a2,2,0,0,0,1.74-.81A4.46,4.46,0,0,0,184.2,34a4.43,4.43,0,0,0-.57-2.52,2,2,0,0,0-1.72-.82C180.37,30.67,179.59,31.79,179.59,34Z"/><path class="cls-2" d="M199.55,28.32v6.87a4.65,4.65,0,0,1-1.27,3.48,5.06,5.06,0,0,1-3.66,1.23A5,5,0,0,1,191,38.7a4.52,4.52,0,0,1-1.26-3.44V28.32h3.1V35a2.69,2.69,0,0,0,.46,1.76,1.63,1.63,0,0,0,1.33.55,1.61,1.61,0,0,0,1.37-.55,2.84,2.84,0,0,0,.43-1.77V28.32Z"/><path class="cls-2" d="M205.35,35.58v4.16h-3.09V28.32H206q4.65,0,4.65,3.37a3.35,3.35,0,0,1-1.94,3.07l3.33,5h-3.5l-2.42-4.16Zm0-2.32h.58c1.08,0,1.61-.47,1.61-1.43,0-.78-.52-1.18-1.58-1.18h-.61Z"/><path class="cls-2" d="M227.68,39.74h-3.1V35.08H221v4.66h-3.1V28.32H221v4.23h3.59V28.32h3.1Z"/><path class="cls-2" d="M235.5,39.74h-3.08v-8.9h-2.79V28.32h8.66v2.52H235.5Z"/><path class="cls-2" d="M245.22,39.74l-2.34-8.23h-.07c.11,1.41.16,2.49.16,3.27v5h-2.73V28.32h4.11l2.38,8.11h.06l2.34-8.11h4.12V39.74h-2.84v-5c0-.26,0-.55,0-.86s.05-1.1.11-2.34h-.07l-2.31,8.21Z"/><path class="cls-2" d="M256,39.74V28.32h3.08v8.93h4.4v2.49Z"/><path class="cls-2" d="M275.22,30.69a2,2,0,0,0-1.72.9,4.37,4.37,0,0,0-.61,2.49c0,2.19.83,3.29,2.5,3.29a5.12,5.12,0,0,0,1.47-.21,13.6,13.6,0,0,0,1.43-.51v2.61a7.76,7.76,0,0,1-3.23.64,5.12,5.12,0,0,1-4-1.5,6.2,6.2,0,0,1-1.38-4.34,7,7,0,0,1,.67-3.12,4.85,4.85,0,0,1,1.92-2.06,5.84,5.84,0,0,1,2.95-.73,8.05,8.05,0,0,1,3.54.81l-.94,2.43a9.54,9.54,0,0,0-1.27-.5A4.26,4.26,0,0,0,275.22,30.69Z"/><path class="cls-2" d="M291.53,34a6.13,6.13,0,0,1-1.42,4.39,6.42,6.42,0,0,1-8.26,0A6.17,6.17,0,0,1,280.42,34a6.12,6.12,0,0,1,1.42-4.36,6.48,6.48,0,0,1,8.28,0A6.17,6.17,0,0,1,291.53,34Zm-7.86,0c0,2.21.77,3.32,2.3,3.32a2,2,0,0,0,1.74-.81,4.37,4.37,0,0,0,.57-2.51,4.34,4.34,0,0,0-.58-2.52,1.94,1.94,0,0,0-1.71-.82C284.44,30.67,283.67,31.79,283.67,34Z"/><path class="cls-2" d="M303.6,33.79a5.89,5.89,0,0,1-1.57,4.4,6,6,0,0,1-4.43,1.55h-3.69V28.32h3.95a6,6,0,0,1,4.25,1.4A5.32,5.32,0,0,1,303.6,33.79Zm-3.2.11a3.65,3.65,0,0,0-.62-2.33,2.28,2.28,0,0,0-1.89-.76H297v6.4h.68a2.49,2.49,0,0,0,2.07-.82A4,4,0,0,0,300.4,33.9Z"/><path class="cls-2" d="M312.75,39.74H306V28.32h6.78v2.47h-3.69v1.8h3.42v2.48h-3.42v2.15h3.69Z"/><polygon class="cls-3" points="26 34 36 44 46 34 42 34 42 24 30 24 30 34 26 34"/></g></g></svg>