<svg xmlns="http://www.w3.org/2000/svg" xmlns:xlink="http://www.w3.org/1999/xlink" viewBox="0 0 222 62"><defs><linearGradient id="3a76aa64-1cd8-4b04-aa11-725e643c499f" y1="31" x2="222" y2="31" gradientUnits="userSpaceOnUse"><stop offset="0" stop-color="#e94c88"/><stop offset="1" stop-color="#f27da9"/></linearGradient></defs><title>Asset 11</title><g id="bd503e7d-6007-4c73-964b-f169e890007a" data-name="Layer 2"><g id="186196c8-201f-4053-b17a-f267630403ae" data-name="Capa 1"><rect width="222" height="62" rx="30.43" ry="30.43" fill="url(#3a76aa64-1cd8-4b04-aa11-725e643c499f)"/><path d="M74.29,34.43a2.76,2.76,0,0,1-1,2.28,4.49,4.49,0,0,1-2.9.84,6.79,6.79,0,0,1-3-.65V34.79a12.4,12.4,0,0,0,1.83.68,5.1,5.1,0,0,0,1.37.2,2,2,0,0,0,1.15-.28,1,1,0,0,0,.4-.85.91.91,0,0,0-.18-.56,1.83,1.83,0,0,0-.51-.48A13.68,13.68,0,0,0,70,32.78a6.12,6.12,0,0,1-1.47-.89,3.29,3.29,0,0,1-.79-1,2.86,2.86,0,0,1-.29-1.32,2.77,2.77,0,0,1,1-2.23,4,4,0,0,1,2.67-.81,6,6,0,0,1,1.59.2,10.67,10.67,0,0,1,1.58.55l-.73,1.77a9.32,9.32,0,0,0-1.42-.49,4.2,4.2,0,0,0-1.1-.14,1.46,1.46,0,0,0-1,.3,1,1,0,0,0-.34.78,1,1,0,0,0,.14.53,1.64,1.64,0,0,0,.44.43,12.78,12.78,0,0,0,1.44.75,5.77,5.77,0,0,1,2.06,1.44A2.81,2.81,0,0,1,74.29,34.43Z" fill="#fff" stroke="#fff"/><path d="M80.37,37.4H78.1V28.58H75.19V26.69h8.09v1.89H80.37Z" fill="#fff" stroke="#fff"/><path d="M94.64,32a5.81,5.81,0,0,1-1.32,4.09,5.71,5.71,0,0,1-7.56,0A5.87,5.87,0,0,1,84.45,32a5.76,5.76,0,0,1,1.32-4.09,5.76,5.76,0,0,1,7.56,0A5.8,5.8,0,0,1,94.64,32Zm-7.81,0a4.41,4.41,0,0,0,.68,2.7,2.36,2.36,0,0,0,2,.91c1.82,0,2.72-1.2,2.72-3.61s-.9-3.62-2.7-3.62a2.41,2.41,0,0,0-2,.91A4.46,4.46,0,0,0,86.83,32Z" fill="#fff" stroke="#fff"/><path d="M104.26,30a3.29,3.29,0,0,1-1.08,2.65,4.63,4.63,0,0,1-3.07.91h-1V37.4H96.86V26.69h3.42a4.52,4.52,0,0,1,3,.84A3,3,0,0,1,104.26,30Zm-5.13,1.7h.75a2.54,2.54,0,0,0,1.57-.41,1.48,1.48,0,0,0,.52-1.21,1.5,1.5,0,0,0-.44-1.18,2.08,2.08,0,0,0-1.37-.38h-1Z" fill="#fff" stroke="#fff"/><path d="M116.29,26.69h2.29L114.94,37.4h-2.48l-3.63-10.71h2.29l2,6.37c.11.38.22.82.34,1.32s.2.85.23,1a17.14,17.14,0,0,1,.55-2.36Z" fill="#fff" stroke="#fff"/><path d="M119.93,37.4V26.69h2.27V37.4Z" fill="#fff" stroke="#fff"/><path d="M133.78,31.94A5.27,5.27,0,0,1,132.27,36a6.12,6.12,0,0,1-4.35,1.41h-3V26.69h3.36a5.65,5.65,0,0,1,4.08,1.39A5.1,5.1,0,0,1,133.78,31.94Zm-2.36.06q0-3.45-3-3.45h-1.21v7h1C130.32,35.52,131.42,34.35,131.42,32Z" fill="#fff" stroke="#fff"/><path d="M142.16,37.4H136V26.69h6.16v1.86h-3.89V30.9h3.62v1.86h-3.62v2.76h3.89Z" fill="#fff" stroke="#fff"/><path d="M154.12,32a5.81,5.81,0,0,1-1.32,4.09,5.71,5.71,0,0,1-7.56,0,5.82,5.82,0,0,1-1.32-4.1,5.76,5.76,0,0,1,1.32-4.09,5.77,5.77,0,0,1,7.57,0A5.84,5.84,0,0,1,154.12,32Zm-7.82,0a4.47,4.47,0,0,0,.68,2.7,2.38,2.38,0,0,0,2,.91q2.72,0,2.72-3.61c0-2.41-.91-3.62-2.71-3.62a2.42,2.42,0,0,0-2,.91A4.46,4.46,0,0,0,146.3,32Z" fill="#fff" stroke="#fff"/></g></g></svg>