<svg xmlns="http://www.w3.org/2000/svg" xmlns:xlink="http://www.w3.org/1999/xlink" viewBox="0 0 324 73"><defs><style>.cls-1{fill:url(#Degradado_sin_nombre_38);}.cls-2{fill:#fff;}</style><linearGradient id="Degradado_sin_nombre_38" y1="36.5" x2="324" y2="36.5" gradientUnits="userSpaceOnUse"><stop offset="0" stop-color="#ff5051"/><stop offset="1" stop-color="#ff8d48"/></linearGradient></defs><title>Asset 7</title><g id="Layer_2" data-name="Layer 2"><g id="Capa_1" data-name="Capa 1"><rect class="cls-1" width="324" height="73" rx="36.5" ry="36.5"/><path class="cls-2" d="M56.43,45.61V32.17h3.63V42.68h5.18v2.93Z"/><path class="cls-2" d="M75.76,45.61h-8V32.17h8v2.91H71.41V37.2h4v2.91h-4v2.54h4.35Z"/><path class="cls-2" d="M84.42,45.61H80.79V35.14H77.5v-3H87.7v3H84.42Z"/><path class="cls-2" d="M101.2,45.61H97.57V35.14H94.28v-3h10.19v3H101.2Z"/><path class="cls-2" d="M118.3,45.61h-3.65V40.13h-4.22v5.48h-3.66V32.17h3.66v5h4.22v-5h3.65Z"/><path class="cls-2" d="M129.57,45.61h-8V32.17h8v2.91h-4.35V37.2h4v2.91h-4v2.54h4.35Z"/><path class="cls-2" d="M143.43,45.61l-2.75-9.68h-.08c.12,1.65.19,2.93.19,3.84v5.84h-3.22V32.17h4.84l2.8,9.54h.08L148,32.17h4.84V45.61h-3.33V39.72c0-.31,0-.65,0-1s.05-1.29.12-2.75h-.08l-2.71,9.66Z"/><path class="cls-2" d="M164.41,45.61l-.66-2.52h-4.37l-.68,2.52h-4l4.38-13.5h4.85l4.44,13.5ZM163,40.11l-.58-2.2c-.13-.5-.3-1.13-.49-1.91s-.32-1.34-.38-1.67c-.06.31-.16.82-.33,1.54s-.52,2.13-1.08,4.24Z"/><path class="cls-2" d="M175.61,37.74h5.81V45a16,16,0,0,1-5.2.81A6.28,6.28,0,0,1,171.41,44a7.21,7.21,0,0,1-1.69-5.14,6.76,6.76,0,0,1,1.86-5.07,7.15,7.15,0,0,1,5.2-1.81,11.49,11.49,0,0,1,2.4.24,9.86,9.86,0,0,1,2,.61L180,35.67A7.08,7.08,0,0,0,176.8,35a3,3,0,0,0-2.46,1,4.46,4.46,0,0,0-.87,2.95,4.51,4.51,0,0,0,.79,2.88,2.71,2.71,0,0,0,2.26,1,6.45,6.45,0,0,0,1.5-.16V40.54h-2.41Z"/><path class="cls-2" d="M184.54,45.61V32.17h3.65V45.61Z"/><path class="cls-2" d="M197.46,35a2.33,2.33,0,0,0-2,1.06,5.1,5.1,0,0,0-.73,2.93q0,3.89,2.95,3.89a6.24,6.24,0,0,0,1.73-.25q.84-.26,1.68-.6v3.07a9.24,9.24,0,0,1-3.8.75A6,6,0,0,1,192.6,44a7.3,7.3,0,0,1-1.62-5.1,8.16,8.16,0,0,1,.78-3.67A5.68,5.68,0,0,1,194,32.82,7,7,0,0,1,197.5,32a9.56,9.56,0,0,1,4.16,1l-1.11,2.86a13.16,13.16,0,0,0-1.49-.59A5.2,5.2,0,0,0,197.46,35Z"/><path class="cls-2" d="M209.34,32.17H214a8,8,0,0,1,4.07.81,2.75,2.75,0,0,1,1.33,2.53,3.21,3.21,0,0,1-.58,1.94,2.6,2.6,0,0,1-1.52,1v.09a3.14,3.14,0,0,1,1.81,1.1,3.37,3.37,0,0,1,.56,2,3.44,3.44,0,0,1-1.37,2.88,6.05,6.05,0,0,1-3.75,1h-5.24ZM213,37.33h1.09a1.94,1.94,0,0,0,1.21-.33,1.1,1.1,0,0,0,.43-1c0-.76-.57-1.13-1.71-1.13h-1ZM213,40v2.83h1.28c1.13,0,1.7-.48,1.7-1.44a1.22,1.22,0,0,0-.46-1,2.08,2.08,0,0,0-1.32-.36Z"/><path class="cls-2" d="M230.4,45.61h-8V32.17h8v2.91h-4.35V37.2h4v2.91h-4v2.54h4.35Z"/><path class="cls-2" d="M238.53,37.74h5.8V45a15.87,15.87,0,0,1-5.19.81A6.25,6.25,0,0,1,234.33,44a7.21,7.21,0,0,1-1.7-5.14,6.76,6.76,0,0,1,1.86-5.07A7.19,7.19,0,0,1,239.7,32a11.46,11.46,0,0,1,2.39.24,9.76,9.76,0,0,1,2,.61l-1.15,2.85a7.08,7.08,0,0,0-3.19-.72,3,3,0,0,0-2.46,1,4.46,4.46,0,0,0-.87,2.95,4.58,4.58,0,0,0,.78,2.88,2.73,2.73,0,0,0,2.27,1,6.3,6.3,0,0,0,1.49-.16V40.54h-2.4Z"/><path class="cls-2" d="M247.45,45.61V32.17h3.65V45.61Z"/><path class="cls-2" d="M267.19,45.61h-4.76l-4.91-9.47h-.09c.12,1.49.18,2.63.18,3.41v6.06h-3.22V32.17h4.74l4.9,9.34h.05c-.08-1.35-.13-2.44-.13-3.26V32.17h3.24Z"/></g></g></svg>