<svg xmlns="http://www.w3.org/2000/svg" xmlns:xlink="http://www.w3.org/1999/xlink" viewBox="0 0 222 62"><defs><linearGradient id="675ad169-c378-465d-bffa-291feb2f66cb" y1="31" x2="222" y2="31" gradientUnits="userSpaceOnUse"><stop offset="0" stop-color="#1ad099"/><stop offset="1" stop-color="#76d449"/></linearGradient></defs><title>Asset 10</title><g id="b5d53ff7-8fb6-422f-ad42-a4bc61cb9799" data-name="Layer 2"><g id="1e944220-65f1-43bb-b77e-a3c693328f69" data-name="Capa 1"><rect width="222" height="62" rx="30.43" ry="30.43" fill="url(#675ad169-c378-465d-bffa-291feb2f66cb)"/><path d="M70.5,33.43a2.76,2.76,0,0,1-1,2.28,4.49,4.49,0,0,1-2.9.84,6.79,6.79,0,0,1-3-.65V33.79a12.4,12.4,0,0,0,1.83.68,5.1,5.1,0,0,0,1.37.2,2,2,0,0,0,1.15-.28,1,1,0,0,0,.4-.85A.91.91,0,0,0,68.1,33a1.83,1.83,0,0,0-.51-.48,13.68,13.68,0,0,0-1.39-.72,6.12,6.12,0,0,1-1.47-.89,3.29,3.29,0,0,1-.79-1,2.86,2.86,0,0,1-.29-1.32,2.77,2.77,0,0,1,1-2.23,4,4,0,0,1,2.67-.81,6,6,0,0,1,1.59.2,10.67,10.67,0,0,1,1.58.55l-.73,1.77a9.32,9.32,0,0,0-1.42-.49,4.2,4.2,0,0,0-1.1-.14,1.46,1.46,0,0,0-1,.3,1,1,0,0,0-.34.78A1,1,0,0,0,66,29a1.64,1.64,0,0,0,.44.43,12.78,12.78,0,0,0,1.44.75A5.77,5.77,0,0,1,70,31.66,2.81,2.81,0,0,1,70.5,33.43Z" fill="#fff" stroke="#fff"/><path d="M76.58,36.4H74.31V27.58H71.4V25.69h8.09v1.89H76.58Z" fill="#fff" stroke="#fff"/><path d="M87.69,36.4l-.78-2.55H83l-.78,2.55H79.79l3.77-10.75h2.78L90.13,36.4ZM86.37,32c-.72-2.31-1.12-3.62-1.21-3.92s-.16-.54-.2-.72c-.16.63-.62,2.17-1.38,4.64Z" fill="#fff" stroke="#fff"/><path d="M93.75,32.29V36.4H91.48V25.69H94.6a5.33,5.33,0,0,1,3.23.8,3.16,3.16,0,0,1,.53,4.09,3.42,3.42,0,0,1-1.47,1.15q2.42,3.61,3.15,4.67H97.52L95,32.29Zm0-1.84h.74a2.77,2.77,0,0,0,1.58-.36A1.27,1.27,0,0,0,96.59,29a1.19,1.19,0,0,0-.53-1.09,3.23,3.23,0,0,0-1.62-.32h-.69Z" fill="#fff" stroke="#fff"/><path d="M105.52,36.4h-2.27V27.58h-2.91V25.69h8.08v1.89h-2.9Z" fill="#fff" stroke="#fff"/><path d="M120.08,25.69h2.29L118.73,36.4h-2.48l-3.63-10.71h2.29l2,6.37c.11.38.23.82.34,1.32s.2.85.23,1a17.14,17.14,0,0,1,.55-2.36Z" fill="#fff" stroke="#fff"/><path d="M123.72,36.4V25.69H126V36.4Z" fill="#fff" stroke="#fff"/><path d="M137.57,30.94A5.23,5.23,0,0,1,136.06,35a6.12,6.12,0,0,1-4.35,1.41h-3V25.69H132a5.65,5.65,0,0,1,4.08,1.39A5.1,5.1,0,0,1,137.57,30.94Zm-2.36.06q0-3.45-3.05-3.45H131v7h1C134.11,34.52,135.21,33.35,135.21,31Z" fill="#fff" stroke="#fff"/><path d="M146,36.4h-6.16V25.69H146v1.86h-3.89V29.9h3.62v1.86h-3.62v2.76H146Z" fill="#fff" stroke="#fff"/><path d="M157.91,31a5.81,5.81,0,0,1-1.32,4.09,5.71,5.71,0,0,1-7.56,0,5.82,5.82,0,0,1-1.32-4.1A5.76,5.76,0,0,1,149,26.93a5,5,0,0,1,3.79-1.41,4.9,4.9,0,0,1,3.78,1.42A5.84,5.84,0,0,1,157.91,31Zm-7.82,0a4.47,4.47,0,0,0,.68,2.7,2.39,2.39,0,0,0,2,.91q2.72,0,2.72-3.61t-2.71-3.62a2.42,2.42,0,0,0-2,.91A4.46,4.46,0,0,0,150.09,31Z" fill="#fff" stroke="#fff"/></g></g></svg>