<svg xmlns="http://www.w3.org/2000/svg" xmlns:xlink="http://www.w3.org/1999/xlink" viewBox="0 0 222 62"><defs><linearGradient id="2b5b0a31-c7ff-4c2c-8925-033267647364" y1="31" x2="222" y2="31" gradientUnits="userSpaceOnUse"><stop offset="0" stop-color="#1ad099"/><stop offset="1" stop-color="#76d449"/></linearGradient></defs><title>Asset 9</title><g id="04dbc28c-0c5d-4bce-9128-66f24596f571" data-name="Layer 2"><g id="72a0f7b8-4198-4dba-8971-b7bafb97be32" data-name="Capa 1"><rect width="222" height="62" rx="30.43" ry="30.43" fill="url(#2b5b0a31-c7ff-4c2c-8925-033267647364)"/><path d="M47.1,36.4H44.83V27.58H41.92V25.69H50v1.89H47.1Z" fill="#fff" stroke="#fff"/><path d="M58.21,36.4l-.78-2.55h-3.9l-.78,2.55H50.31l3.77-10.75h2.78l3.8,10.75ZM56.89,32c-.72-2.31-1.12-3.62-1.21-3.92s-.16-.54-.2-.72c-.16.63-.62,2.17-1.38,4.64Z" fill="#fff" stroke="#fff"/><path d="M70.62,36.4H68l-2.81-4.51-1,.69V36.4H62V25.69h2.27v4.9l.9-1.26,2.9-3.64h2.52l-3.74,4.74Z" fill="#fff" stroke="#fff"/><path d="M78.13,36.4H72V25.69h6.17v1.86h-3.9V29.9h3.63v1.86H74.23v2.76h3.9Z" fill="#fff" stroke="#fff"/><path d="M90.58,33.43a2.78,2.78,0,0,1-1,2.28,4.54,4.54,0,0,1-2.91.84,6.82,6.82,0,0,1-3-.65V33.79a12.06,12.06,0,0,0,1.84.68,5,5,0,0,0,1.37.2A2,2,0,0,0,88,34.39a1,1,0,0,0,.39-.85,1,1,0,0,0-.17-.56,1.88,1.88,0,0,0-.52-.48,13.68,13.68,0,0,0-1.39-.72,6.55,6.55,0,0,1-1.47-.89,3.11,3.11,0,0,1-.78-1,2.74,2.74,0,0,1-.3-1.32,2.78,2.78,0,0,1,1-2.23,4,4,0,0,1,2.66-.81,5.87,5.87,0,0,1,1.59.2,10.39,10.39,0,0,1,1.59.55l-.73,1.77a9.7,9.7,0,0,0-1.42-.49,4.2,4.2,0,0,0-1.1-.14,1.46,1.46,0,0,0-1,.3,1,1,0,0,0-.35.78,1,1,0,0,0,.14.53,1.7,1.7,0,0,0,.45.43,12.78,12.78,0,0,0,1.44.75,5.71,5.71,0,0,1,2,1.44A2.82,2.82,0,0,1,90.58,33.43Z" fill="#fff" stroke="#fff"/><path d="M97.07,27.43a2.32,2.32,0,0,0-2,1,4.55,4.55,0,0,0-.7,2.69c0,2.38.9,3.58,2.69,3.58a8.42,8.42,0,0,0,2.73-.57V36a7.7,7.7,0,0,1-2.94.55,4.52,4.52,0,0,1-3.58-1.42A6,6,0,0,1,92,31.06a6.75,6.75,0,0,1,.61-2.93,4.41,4.41,0,0,1,1.75-1.92,5.14,5.14,0,0,1,2.67-.67,7.3,7.3,0,0,1,3.14.75l-.74,1.85a11.43,11.43,0,0,0-1.21-.5A3.6,3.6,0,0,0,97.07,27.43Z" fill="#fff" stroke="#fff"/><path d="M104.35,32.29V36.4h-2.27V25.69h3.12a5.33,5.33,0,0,1,3.23.8,2.83,2.83,0,0,1,1,2.41,2.88,2.88,0,0,1-.52,1.68,3.42,3.42,0,0,1-1.47,1.15q2.42,3.61,3.14,4.67h-2.51l-2.56-4.11Zm0-1.84h.73a2.79,2.79,0,0,0,1.59-.36,1.3,1.3,0,0,0,.52-1.13,1.19,1.19,0,0,0-.53-1.09,3.23,3.23,0,0,0-1.62-.32h-.69Z" fill="#fff" stroke="#fff"/><path d="M118.15,36.4H112V25.69h6.17v1.86h-3.9V29.9h3.63v1.86h-3.63v2.76h3.9Z" fill="#fff" stroke="#fff"/><path d="M126.55,36.4h-6.17V25.69h6.17v1.86h-3.9V29.9h3.63v1.86h-3.63v2.76h3.9Z" fill="#fff" stroke="#fff"/><path d="M138.28,36.4H135.4l-4.66-8.1h-.07c.1,1.43.14,2.45.14,3.06v5h-2V25.69h2.87l4.65,8h0c-.07-1.39-.11-2.37-.11-2.95V25.69h2Z" fill="#fff" stroke="#fff"/><path d="M147.3,33.43a2.78,2.78,0,0,1-1,2.28,4.54,4.54,0,0,1-2.91.84,6.82,6.82,0,0,1-3-.65V33.79a12.4,12.4,0,0,0,1.83.68,5.11,5.11,0,0,0,1.38.2,1.92,1.92,0,0,0,1.14-.28A1.07,1.07,0,0,0,144.9,33a1.88,1.88,0,0,0-.52-.48,13.68,13.68,0,0,0-1.39-.72,6.55,6.55,0,0,1-1.47-.89,3.11,3.11,0,0,1-.78-1,3.05,3.05,0,0,1,.67-3.55,4,4,0,0,1,2.66-.81,5.87,5.87,0,0,1,1.59.2,10.39,10.39,0,0,1,1.59.55l-.73,1.77a10.12,10.12,0,0,0-1.42-.49,4.26,4.26,0,0,0-1.1-.14,1.46,1.46,0,0,0-1,.3,1,1,0,0,0-.35.78,1,1,0,0,0,.14.53,1.56,1.56,0,0,0,.45.43,13.27,13.27,0,0,0,1.43.75,5.67,5.67,0,0,1,2.06,1.44A2.82,2.82,0,0,1,147.3,33.43Z" fill="#fff" stroke="#fff"/><path d="M158,36.4h-2.26V31.78h-4.24V36.4h-2.27V25.69h2.27v4.2h4.24v-4.2H158Z" fill="#fff" stroke="#fff"/><path d="M170.44,31a5.81,5.81,0,0,1-1.32,4.09,5.71,5.71,0,0,1-7.56,0,5.82,5.82,0,0,1-1.32-4.1,5.76,5.76,0,0,1,1.32-4.09,5.77,5.77,0,0,1,7.57,0A5.84,5.84,0,0,1,170.44,31Zm-7.82,0a4.47,4.47,0,0,0,.68,2.7,2.38,2.38,0,0,0,2,.91q2.72,0,2.72-3.61c0-2.41-.91-3.62-2.71-3.62a2.42,2.42,0,0,0-2,.91A4.46,4.46,0,0,0,162.62,31Z" fill="#fff" stroke="#fff"/><path d="M176.79,36.4h-2.27V27.58h-2.91V25.69h8.08v1.89h-2.9Z" fill="#fff" stroke="#fff"/></g></g></svg>