<svg xmlns="http://www.w3.org/2000/svg" xmlns:xlink="http://www.w3.org/1999/xlink" viewBox="0 0 222 62"><defs><style>.cls-1{fill:url(#Degradado_sin_nombre_27);}.cls-2{fill:#fff;}.cls-3{fill:#1aa978;}</style><linearGradient id="Degradado_sin_nombre_27" y1="31" x2="222" y2="31" gradientUnits="userSpaceOnUse"><stop offset="0" stop-color="#1ad099"/><stop offset="1" stop-color="#76d449"/></linearGradient></defs><title>Asset 9</title><g id="Layer_2" data-name="Layer 2"><g id="Capa_1" data-name="Capa 1"><rect class="cls-1" width="222" height="62" rx="30.43" ry="30.43"/><path class="cls-2" d="M63.61,27.32v6.87a4.61,4.61,0,0,1-1.27,3.48,5,5,0,0,1-3.66,1.23,5,5,0,0,1-3.59-1.2,4.55,4.55,0,0,1-1.25-3.44V27.32h3.1V34a2.75,2.75,0,0,0,.45,1.76,1.65,1.65,0,0,0,1.34.55,1.61,1.61,0,0,0,1.37-.55A2.91,2.91,0,0,0,60.53,34V27.32Z"/><path class="cls-2" d="M74.62,31a3.84,3.84,0,0,1-1.13,3,4.57,4.57,0,0,1-3.21,1h-.86v3.79H66.33V27.32h4a4.81,4.81,0,0,1,3.25.94A3.36,3.36,0,0,1,74.62,31Zm-5.2,1.49H70a1.49,1.49,0,0,0,1.1-.4A1.37,1.37,0,0,0,71.49,31c0-.77-.42-1.16-1.28-1.16h-.79Z"/><path class="cls-2" d="M76.76,38.74V27.32h3.09v8.93h4.39v2.49Z"/><path class="cls-2" d="M97.08,33a6.18,6.18,0,0,1-1.41,4.39,6.43,6.43,0,0,1-8.27,0A6.17,6.17,0,0,1,86,33a6.08,6.08,0,0,1,1.43-4.36,6.47,6.47,0,0,1,8.27,0A6.17,6.17,0,0,1,97.08,33Zm-7.86,0c0,2.21.77,3.32,2.3,3.32a2,2,0,0,0,1.74-.81A4.37,4.37,0,0,0,93.83,33a4.34,4.34,0,0,0-.58-2.52,1.94,1.94,0,0,0-1.71-.82C90,29.67,89.22,30.78,89.22,33Z"/><path class="cls-2" d="M106.47,38.74l-.56-2.14H102.2l-.58,2.14H98.23L102,27.27h4.12l3.77,11.47Zm-1.2-4.67-.5-1.88c-.11-.41-.25-.95-.41-1.61s-.28-1.14-.33-1.43c0,.27-.14.71-.28,1.32s-.44,1.81-.91,3.6Z"/><path class="cls-2" d="M121.09,32.79a5.89,5.89,0,0,1-1.57,4.4,6,6,0,0,1-4.43,1.55H111.4V27.32h3.95a6,6,0,0,1,4.25,1.4A5.32,5.32,0,0,1,121.09,32.79Zm-3.2.11a3.65,3.65,0,0,0-.62-2.33,2.28,2.28,0,0,0-1.89-.76h-.9v6.4h.69a2.46,2.46,0,0,0,2.06-.82A3.9,3.9,0,0,0,117.89,32.9Z"/><path class="cls-2" d="M137.63,32.79a5.89,5.89,0,0,1-1.57,4.4,6.07,6.07,0,0,1-4.43,1.55h-3.69V27.32h3.95a6,6,0,0,1,4.25,1.4A5.35,5.35,0,0,1,137.63,32.79Zm-3.2.11a3.65,3.65,0,0,0-.62-2.33,2.29,2.29,0,0,0-1.89-.76H131v6.4h.69a2.46,2.46,0,0,0,2.06-.82A3.9,3.9,0,0,0,134.43,32.9Z"/><path class="cls-2" d="M146.78,38.74H140V27.32h6.78v2.47h-3.69v1.8h3.42v2.48h-3.42v2.15h3.69Z"/><path class="cls-2" d="M156.57,35.27a3.37,3.37,0,0,1-.54,1.89,3.59,3.59,0,0,1-1.55,1.28,5.89,5.89,0,0,1-2.39.46,10.09,10.09,0,0,1-1.91-.16,7.55,7.55,0,0,1-1.61-.56V35.43a8.72,8.72,0,0,0,1.84.7,6.75,6.75,0,0,0,1.75.26,1.67,1.67,0,0,0,1-.24.71.71,0,0,0,.32-.61.63.63,0,0,0-.13-.41,1.36,1.36,0,0,0-.41-.36c-.19-.12-.7-.36-1.52-.73a7.24,7.24,0,0,1-1.67-1,2.89,2.89,0,0,1-.83-1.09,3.62,3.62,0,0,1-.27-1.46A2.92,2.92,0,0,1,149.8,28a5,5,0,0,1,3.15-.89,9,9,0,0,1,3.62.82l-.95,2.39a6.83,6.83,0,0,0-2.76-.74,1.48,1.48,0,0,0-.88.21.65.65,0,0,0-.27.53.77.77,0,0,0,.35.6,13,13,0,0,0,1.88,1A5.33,5.33,0,0,1,156,33.35,3.12,3.12,0,0,1,156.57,35.27Z"/><path class="cls-2" d="M158.66,38.74V27.32h3.1V38.74Z"/><path class="cls-2" d="M169.13,32.05h4.93v6.16a13.51,13.51,0,0,1-4.41.69,5.37,5.37,0,0,1-4.09-1.53A6.16,6.16,0,0,1,164.12,33a5.75,5.75,0,0,1,1.58-4.31,6.09,6.09,0,0,1,4.42-1.54,9.53,9.53,0,0,1,2,.21,8.93,8.93,0,0,1,1.67.51l-1,2.42a6.12,6.12,0,0,0-2.71-.6,2.59,2.59,0,0,0-2.09.87,3.84,3.84,0,0,0-.74,2.52,3.83,3.83,0,0,0,.67,2.44,2.31,2.31,0,0,0,1.92.84,5.61,5.61,0,0,0,1.27-.14V34.44h-2Z"/><path class="cls-2" d="M187.58,38.74h-4l-4.17-8h-.08c.1,1.27.15,2.24.15,2.9v5.15h-2.73V27.32h4l4.16,7.94h0c-.07-1.16-.11-2.08-.11-2.78V27.32h2.75Z"/><polygon class="cls-3" points="42 31 32 21 22 31 26 31 26 41 38 41 38 31 42 31"/></g></g></svg>