<svg xmlns="http://www.w3.org/2000/svg" xmlns:xlink="http://www.w3.org/1999/xlink" viewBox="0 0 222 62"><defs><linearGradient id="e39a3964-a29c-4489-9f51-06ece040d7b4" y1="31" x2="222" y2="31" gradientUnits="userSpaceOnUse"><stop offset="0" stop-color="#1ad099"/><stop offset="1" stop-color="#76d449"/></linearGradient></defs><title>Asset 2</title><g id="fc0f9239-ca46-4468-b44f-4fd5fd4fb5c4" data-name="Layer 2"><g id="e7c83734-40d1-4f57-a7a0-5bef939cd1d4" data-name="Capa 1"><rect width="222" height="62" rx="30.43" ry="30.43" fill="url(#e39a3964-a29c-4489-9f51-06ece040d7b4)"/><path d="M85.33,32.29V36.4H83.06V25.69h3.12a5.33,5.33,0,0,1,3.23.8,2.83,2.83,0,0,1,1,2.41,2.88,2.88,0,0,1-.52,1.68,3.42,3.42,0,0,1-1.47,1.15q2.41,3.61,3.15,4.67H89.1l-2.56-4.11Zm0-1.84h.73a2.79,2.79,0,0,0,1.59-.36A1.3,1.3,0,0,0,88.17,29a1.19,1.19,0,0,0-.53-1.09A3.23,3.23,0,0,0,86,27.55h-.69Z" fill="#fff" stroke="#fff"/><path d="M99.13,36.4H93V25.69h6.17v1.86h-3.9V29.9h3.63v1.86H95.23v2.76h3.9Z" fill="#fff" stroke="#fff"/><path d="M107.68,33.43a2.76,2.76,0,0,1-1,2.28,4.51,4.51,0,0,1-2.9.84,6.83,6.83,0,0,1-3-.65V33.79a12.89,12.89,0,0,0,1.84.68,5.1,5.1,0,0,0,1.37.2,2,2,0,0,0,1.15-.28,1,1,0,0,0,.4-.85.91.91,0,0,0-.18-.56,2,2,0,0,0-.51-.48,13.68,13.68,0,0,0-1.39-.72,6.12,6.12,0,0,1-1.47-.89,3.29,3.29,0,0,1-.79-1,2.86,2.86,0,0,1-.29-1.32,2.77,2.77,0,0,1,1-2.23,4,4,0,0,1,2.66-.81,6,6,0,0,1,1.6.2,10.67,10.67,0,0,1,1.58.55l-.73,1.77a9.32,9.32,0,0,0-1.42-.49,4.2,4.2,0,0,0-1.1-.14,1.46,1.46,0,0,0-1,.3,1,1,0,0,0-.34.78.93.93,0,0,0,.14.53,1.64,1.64,0,0,0,.44.43,12.78,12.78,0,0,0,1.44.75,5.77,5.77,0,0,1,2.06,1.44A2.81,2.81,0,0,1,107.68,33.43Z" fill="#fff" stroke="#fff"/><path d="M113.76,36.4h-2.27V27.58h-2.91V25.69h8.08v1.89h-2.9Z" fill="#fff" stroke="#fff"/><path d="M124.87,36.4l-.78-2.55h-3.9l-.78,2.55H117l3.78-10.75h2.78l3.79,10.75ZM123.55,32c-.72-2.31-1.12-3.62-1.21-3.92s-.16-.54-.2-.72c-.16.63-.62,2.17-1.38,4.64Z" fill="#fff" stroke="#fff"/><path d="M130.93,32.29V36.4h-2.27V25.69h3.12a5.33,5.33,0,0,1,3.23.8,2.83,2.83,0,0,1,1.05,2.41,2.88,2.88,0,0,1-.52,1.68,3.42,3.42,0,0,1-1.47,1.15q2.42,3.61,3.14,4.67H134.7l-2.56-4.11Zm0-1.84h.73a2.79,2.79,0,0,0,1.59-.36,1.3,1.3,0,0,0,.52-1.13,1.19,1.19,0,0,0-.53-1.09,3.23,3.23,0,0,0-1.62-.32h-.69Z" fill="#fff" stroke="#fff"/><path d="M142.69,36.4h-2.27V27.58h-2.9V25.69h8.08v1.89h-2.91Z" fill="#fff" stroke="#fff"/></g></g></svg>