<svg xmlns="http://www.w3.org/2000/svg" xmlns:xlink="http://www.w3.org/1999/xlink" viewBox="0 0 222 62"><defs><linearGradient id="a2ebec88-8761-4d28-abf7-bbc45e0be681" y1="31" x2="222" y2="31" gradientUnits="userSpaceOnUse"><stop offset="0" stop-color="#1ad099"/><stop offset="1" stop-color="#76d449"/></linearGradient></defs><title>Asset 8</title><g id="bcb7988e-74e4-41ae-9a3a-4a7a8ae54503" data-name="Layer 2"><g id="232535d0-a511-4f15-b5b5-48d359a88bf1" data-name="Capa 1"><rect width="222" height="62" rx="30.43" ry="30.43" fill="url(#a2ebec88-8761-4d28-abf7-bbc45e0be681)"/><path d="M58.46,27.43a2.31,2.31,0,0,0-2,1,4.48,4.48,0,0,0-.71,2.69c0,2.38.9,3.58,2.69,3.58a8.42,8.42,0,0,0,2.73-.57V36a7.7,7.7,0,0,1-2.94.55,4.52,4.52,0,0,1-3.58-1.42,6,6,0,0,1-1.23-4.07,6.75,6.75,0,0,1,.6-2.93,4.41,4.41,0,0,1,1.75-1.92,5.14,5.14,0,0,1,2.67-.67,7.26,7.26,0,0,1,3.14.75l-.74,1.85a12.21,12.21,0,0,0-1.2-.5A3.7,3.7,0,0,0,58.46,27.43Z" fill="#fff" stroke="#fff"/><path d="M65.74,32.29V36.4H63.47V25.69h3.12a5.33,5.33,0,0,1,3.23.8,2.83,2.83,0,0,1,1.05,2.41,2.88,2.88,0,0,1-.52,1.68,3.42,3.42,0,0,1-1.47,1.15Q71.29,35.35,72,36.4H69.51L67,32.29Zm0-1.84h.73a2.79,2.79,0,0,0,1.59-.36A1.3,1.3,0,0,0,68.58,29a1.19,1.19,0,0,0-.53-1.09,3.23,3.23,0,0,0-1.62-.32h-.69Z" fill="#fff" stroke="#fff"/><path d="M83.09,31a5.81,5.81,0,0,1-1.32,4.09,5.71,5.71,0,0,1-7.56,0A5.87,5.87,0,0,1,72.9,31a5.76,5.76,0,0,1,1.32-4.09,5.77,5.77,0,0,1,7.57,0A5.84,5.84,0,0,1,83.09,31Zm-7.81,0a4.41,4.41,0,0,0,.68,2.7,2.36,2.36,0,0,0,2,.91c1.82,0,2.72-1.2,2.72-3.61s-.9-3.62-2.7-3.62a2.41,2.41,0,0,0-2,.91A4.46,4.46,0,0,0,75.28,31Z" fill="#fff" stroke="#fff"/><path d="M92.71,29a3.29,3.29,0,0,1-1.08,2.65,4.63,4.63,0,0,1-3.07.91h-1V36.4H85.31V25.69h3.42a4.52,4.52,0,0,1,3,.84A3,3,0,0,1,92.71,29Zm-5.13,1.7h.75a2.54,2.54,0,0,0,1.57-.41,1.48,1.48,0,0,0,.52-1.21A1.5,1.5,0,0,0,90,27.93a2.08,2.08,0,0,0-1.37-.38h-1Z" fill="#fff" stroke="#fff"/><path d="M108.53,36.4h-2.76l-.84-.83a5.43,5.43,0,0,1-3.17,1,4.51,4.51,0,0,1-2.83-.82,2.68,2.68,0,0,1-1.05-2.22,3.2,3.2,0,0,1,.44-1.71,4.33,4.33,0,0,1,1.52-1.33,5.1,5.1,0,0,1-.8-1.2A3.22,3.22,0,0,1,98.79,28a2.18,2.18,0,0,1,.86-1.79,3.58,3.58,0,0,1,2.28-.68,3.49,3.49,0,0,1,2.18.63,2.05,2.05,0,0,1,.82,1.7,2.69,2.69,0,0,1-.51,1.59,5,5,0,0,1-1.63,1.37l2.08,2a9.43,9.43,0,0,0,.9-2.2h2.33a10.76,10.76,0,0,1-.73,1.93,8.72,8.72,0,0,1-1.05,1.66Zm-8.3-3.11a1.24,1.24,0,0,0,.47,1,1.91,1.91,0,0,0,1.22.37,3.16,3.16,0,0,0,1.66-.45l-2.43-2.41a2.83,2.83,0,0,0-.67.67A1.36,1.36,0,0,0,100.23,33.29Zm2.63-5.19a.77.77,0,0,0-.26-.61,1,1,0,0,0-.68-.22,1.17,1.17,0,0,0-.78.23.85.85,0,0,0-.28.67,2.22,2.22,0,0,0,.7,1.42,4.6,4.6,0,0,0,1-.69A1.1,1.1,0,0,0,102.86,28.1Z" fill="#fff" stroke="#fff"/><path d="M122.49,25.69v6.93A4,4,0,0,1,122,34.7a3.49,3.49,0,0,1-1.54,1.37,5.45,5.45,0,0,1-2.37.48,4.57,4.57,0,0,1-3.21-1.06,3.77,3.77,0,0,1-1.14-2.9v-6.9H116v6.56a2.74,2.74,0,0,0,.5,1.81,2.05,2.05,0,0,0,1.65.58,2,2,0,0,0,1.61-.58,2.74,2.74,0,0,0,.51-1.83V25.69Z" fill="#fff" stroke="#fff"/><path d="M132.51,29a3.29,3.29,0,0,1-1.08,2.65,4.63,4.63,0,0,1-3.07.91h-1V36.4h-2.27V25.69h3.42a4.52,4.52,0,0,1,3,.84A3,3,0,0,1,132.51,29Zm-5.13,1.7h.75a2.54,2.54,0,0,0,1.57-.41,1.48,1.48,0,0,0,.52-1.21,1.5,1.5,0,0,0-.44-1.18,2.08,2.08,0,0,0-1.37-.38h-1Z" fill="#fff" stroke="#fff"/><path d="M134.53,36.4V25.69h2.27v8.83h4.34V36.4Z" fill="#fff" stroke="#fff"/><path d="M152.72,31a5.81,5.81,0,0,1-1.32,4.09,5.7,5.7,0,0,1-7.55,0,5.82,5.82,0,0,1-1.32-4.1,5.76,5.76,0,0,1,1.32-4.09,5.77,5.77,0,0,1,7.57,0A5.84,5.84,0,0,1,152.72,31Zm-7.81,0a4.41,4.41,0,0,0,.68,2.7,2.37,2.37,0,0,0,2,.91q2.72,0,2.71-3.61t-2.7-3.62a2.42,2.42,0,0,0-2,.91A4.46,4.46,0,0,0,144.91,31Z" fill="#fff" stroke="#fff"/><path d="M161.5,36.4l-.78-2.55h-3.9L156,36.4h-2.45l3.78-10.75h2.78l3.79,10.75ZM160.18,32c-.72-2.31-1.12-3.62-1.21-3.92s-.16-.54-.2-.72c-.16.63-.62,2.17-1.38,4.64Z" fill="#fff" stroke="#fff"/><path d="M174.18,30.94A5.27,5.27,0,0,1,172.67,35a6.12,6.12,0,0,1-4.35,1.41h-3V25.69h3.36a5.61,5.61,0,0,1,4.07,1.39A5.07,5.07,0,0,1,174.18,30.94Zm-2.36.06q0-3.45-3-3.45h-1.21v7h1C170.72,34.52,171.82,33.35,171.82,31Z" fill="#fff" stroke="#fff"/></g></g></svg>