<svg xmlns="http://www.w3.org/2000/svg" xmlns:xlink="http://www.w3.org/1999/xlink" viewBox="0 0 222 62"><defs><style>.cls-1{fill:url(#Degradado_sin_nombre_33);}.cls-2{fill:#fff;}.cls-3{fill:#b22a5f;}</style><linearGradient id="Degradado_sin_nombre_33" y1="31" x2="222" y2="31" gradientUnits="userSpaceOnUse"><stop offset="0" stop-color="#e94c88"/><stop offset="1" stop-color="#f27da9"/></linearGradient></defs><title>Asset 8</title><g id="Layer_2" data-name="Layer 2"><g id="Capa_1" data-name="Capa 1"><rect class="cls-1" width="222" height="62" rx="30.43" ry="30.43"/><path class="cls-2" d="M63.94,38.74H60.85v-8.9H58.06V27.32h8.66v2.52H63.94Z"/><path class="cls-2" d="M75.68,38.74l-.56-2.14H71.41l-.58,2.14H67.44l3.73-11.47h4.11l3.78,11.47Zm-1.2-4.67L74,32.19c-.12-.41-.26-.95-.42-1.61s-.27-1.14-.33-1.43c0,.27-.14.71-.27,1.32s-.45,1.81-.92,3.6Z"/><path class="cls-2" d="M90.37,38.74H86.88l-2.25-4.37-.92.55v3.82h-3.1V27.32h3.1v5a13.49,13.49,0,0,1,1-1.46l2.4-3.5h3.37l-3.6,5.12Z"/><path class="cls-2" d="M98.7,38.74H91.92V27.32H98.7v2.47H95v1.8h3.42v2.48H95v2.15H98.7Z"/><path class="cls-2" d="M112.51,38.74,112,36.6h-3.72l-.57,2.14h-3.39L108,27.27h4.12l3.77,11.47Zm-1.2-4.67-.5-1.88c-.11-.41-.25-.95-.41-1.61s-.28-1.14-.33-1.43c0,.27-.14.71-.28,1.32s-.44,1.81-.91,3.6Z"/><path class="cls-2" d="M130.2,31a3.81,3.81,0,0,1-1.13,3,4.56,4.56,0,0,1-3.2,1H125v3.79h-3.09V27.32h4a4.85,4.85,0,0,1,3.25.94A3.39,3.39,0,0,1,130.2,31ZM125,32.44h.56a1.51,1.51,0,0,0,1.11-.4,1.41,1.41,0,0,0,.41-1.07c0-.77-.43-1.16-1.28-1.16H125Z"/><path class="cls-2" d="M132.34,38.74V27.32h3.1V38.74Z"/><path class="cls-2" d="M143.32,29.69a2,2,0,0,0-1.72.9,4.37,4.37,0,0,0-.62,2.49c0,2.19.84,3.29,2.51,3.29a5.12,5.12,0,0,0,1.47-.21,14.46,14.46,0,0,0,1.43-.51v2.61a7.76,7.76,0,0,1-3.23.64,5.12,5.12,0,0,1-4-1.5,6.2,6.2,0,0,1-1.38-4.34,6.89,6.89,0,0,1,.67-3.12,4.79,4.79,0,0,1,1.92-2.06,5.84,5.84,0,0,1,2.95-.73,8.11,8.11,0,0,1,3.54.81l-.95,2.43a9.42,9.42,0,0,0-1.26-.5A4.3,4.3,0,0,0,143.32,29.69Z"/><path class="cls-2" d="M154,38.74h-3.09v-8.9H148.1V27.32h8.66v2.52H154Z"/><path class="cls-2" d="M168.42,27.32v6.87a4.61,4.61,0,0,1-1.27,3.48,5.06,5.06,0,0,1-3.66,1.23,5,5,0,0,1-3.59-1.2,4.51,4.51,0,0,1-1.25-3.44V27.32h3.1V34a2.75,2.75,0,0,0,.45,1.76,1.65,1.65,0,0,0,1.34.55,1.62,1.62,0,0,0,1.37-.55,2.92,2.92,0,0,0,.42-1.77V27.32Z"/><path class="cls-2" d="M174.22,34.58v4.16h-3.08V27.32h3.74c3.1,0,4.66,1.12,4.66,3.37a3.37,3.37,0,0,1-1.94,3.07l3.33,5h-3.5L175,34.58Zm0-2.32h.58c1.08,0,1.62-.47,1.62-1.43,0-.78-.53-1.18-1.59-1.18h-.61Z"/><path class="cls-2" d="M189.07,38.74h-6.78V27.32h6.78v2.47h-3.7v1.8h3.42v2.48h-3.42v2.15h3.7Z"/><circle class="cls-3" cx="24.85" cy="31.14" r="1.28"/><path class="cls-3" d="M36.42,28.57A5.57,5.57,0,1,0,42,34.13,5.58,5.58,0,0,0,36.42,28.57Zm0,9.42a3.86,3.86,0,1,1,3.85-3.86A3.86,3.86,0,0,1,36.42,38Z"/><path class="cls-3" d="M44.08,26.43H42.23l-1-1.73a5.6,5.6,0,0,0-1.74-1.63L39.37,23H33.72l-.1.07a5.71,5.71,0,0,0-1.73,1.6l-1.65,1.76h-3V26a1.77,1.77,0,0,0-1.55-1.74h-.86A1.93,1.93,0,0,0,23.19,26l0,.47A2.27,2.27,0,0,0,21,29V40.18c0,1.57.94,2.46,2.65,2.52H44.06c1.7-.06,2.64-1,2.64-2.52V28.57C46.7,27.09,45.89,26.43,44.08,26.43ZM24.85,33.28A2.14,2.14,0,1,1,27,31.14,2.14,2.14,0,0,1,24.85,33.28Zm11.57,7.28a6.43,6.43,0,1,1,6.42-6.43A6.44,6.44,0,0,1,36.42,40.56Z"/></g></g></svg>