<svg xmlns="http://www.w3.org/2000/svg" xmlns:xlink="http://www.w3.org/1999/xlink" viewBox="0 0 351 62"><defs><linearGradient id="f06a11c2-9879-4c63-9ed3-1ed9be5945cd" y1="31" x2="351" y2="31" gradientUnits="userSpaceOnUse"><stop offset="0" stop-color="#55e9ff"/><stop offset="1" stop-color="#3f9cff"/></linearGradient></defs><title>Asset 2</title><g id="9a97ca7e-4977-48ac-9cec-5aebe93766c5" data-name="Layer 2"><g id="08e5162a-d55a-4ce0-8547-ff8538fce39a" data-name="Capa 1"><rect width="351" height="62" rx="31" ry="31" fill="url(#f06a11c2-9879-4c63-9ed3-1ed9be5945cd)"/><path d="M61.05,28.92a4.32,4.32,0,0,1-1.27,3.32,5.1,5.1,0,0,1-3.61,1.18h-1v4.26H51.72V24.83h4.45a5.46,5.46,0,0,1,3.66,1.06A3.82,3.82,0,0,1,61.05,28.92Zm-5.86,1.67h.64a1.74,1.74,0,0,0,1.24-.44,1.61,1.61,0,0,0,.46-1.22c0-.86-.48-1.3-1.44-1.3h-.9Z" fill="#fff"/><path d="M66.57,33v4.68H63.1V24.83h4.21q5.23,0,5.23,3.8a3.77,3.77,0,0,1-2.18,3.45l3.75,5.6H70.17L67.45,33Zm0-2.61h.65c1.21,0,1.82-.53,1.82-1.6,0-.89-.6-1.33-1.79-1.33h-.68Z" fill="#fff"/><path d="M82.91,37.68H75.28V24.83h7.63v2.79H78.75v2H82.6v2.78H78.75v2.43h4.16Z" fill="#fff"/><path d="M96.06,31a6.64,6.64,0,0,1-1.77,5,6.8,6.8,0,0,1-5,1.74H85.16V24.83H89.6a6.72,6.72,0,0,1,4.78,1.58A6,6,0,0,1,96.06,31Zm-3.6.13a4,4,0,0,0-.7-2.62,2.58,2.58,0,0,0-2.12-.86h-1v7.2h.77a2.77,2.77,0,0,0,2.32-.92A4.42,4.42,0,0,0,92.46,31.11Z" fill="#fff"/><path d="M98.37,37.68V24.83h3.48V37.68Z" fill="#fff"/><path d="M110.35,27.49a2.21,2.21,0,0,0-1.93,1,4.93,4.93,0,0,0-.69,2.8q0,3.71,2.82,3.71a5.68,5.68,0,0,0,1.65-.24c.53-.16,1.07-.35,1.61-.57v2.93a8.83,8.83,0,0,1-3.64.72,5.77,5.77,0,0,1-4.46-1.69,6.94,6.94,0,0,1-1.55-4.88,7.82,7.82,0,0,1,.75-3.51,5.39,5.39,0,0,1,2.16-2.32,6.56,6.56,0,0,1,3.32-.81,9.19,9.19,0,0,1,4,.9l-1.06,2.73a12.07,12.07,0,0,0-1.43-.56A5,5,0,0,0,110.35,27.49Z" fill="#fff"/><path d="M122,37.68h-3.47v-10h-3.14V24.83h9.74v2.84H122Z" fill="#fff"/><path d="M134.58,37.68H127V24.83h7.63v2.79h-4.16v2h3.85v2.78h-3.85v2.43h4.16Z" fill="#fff"/><path d="M147.73,31a6.64,6.64,0,0,1-1.77,5,6.8,6.8,0,0,1-5,1.74h-4.15V24.83h4.44a6.72,6.72,0,0,1,4.78,1.58A6,6,0,0,1,147.73,31Zm-3.6.13a4,4,0,0,0-.7-2.62,2.57,2.57,0,0,0-2.12-.86h-1v7.2h.77a2.77,2.77,0,0,0,2.32-.92A4.42,4.42,0,0,0,144.13,31.11Z" fill="#fff"/><path d="M166.74,31.24a6.94,6.94,0,0,1-1.59,4.93,7.23,7.23,0,0,1-9.3,0,6.93,6.93,0,0,1-1.61-4.94,6.85,6.85,0,0,1,1.6-4.9,7.27,7.27,0,0,1,9.31,0A6.91,6.91,0,0,1,166.74,31.24Zm-8.85,0q0,3.72,2.6,3.72a2.22,2.22,0,0,0,1.95-.9,4.92,4.92,0,0,0,.64-2.82,5,5,0,0,0-.65-2.85,2.2,2.2,0,0,0-1.93-.91Q157.89,27.48,157.89,31.24Z" fill="#fff"/><path d="M169.06,24.83h4.48a7.63,7.63,0,0,1,3.89.78A2.64,2.64,0,0,1,178.7,28a3.08,3.08,0,0,1-.56,1.85,2.49,2.49,0,0,1-1.45,1V31A3,3,0,0,1,178.42,32a3.23,3.23,0,0,1,.53,1.92,3.29,3.29,0,0,1-1.31,2.75,5.77,5.77,0,0,1-3.58,1h-5Zm3.47,4.93h1a1.86,1.86,0,0,0,1.16-.31,1.07,1.07,0,0,0,.41-.91c0-.72-.55-1.08-1.64-1.08h-1Zm0,2.54V35h1.22c1.08,0,1.63-.46,1.63-1.37a1.19,1.19,0,0,0-.44-1,2.06,2.06,0,0,0-1.26-.34Z" fill="#fff"/><path d="M180.17,41.71a8.72,8.72,0,0,1-1.8-.18v-2.7l.6.12a3.66,3.66,0,0,0,.69.07,1.43,1.43,0,0,0,1.23-.52,3.25,3.25,0,0,0,.37-1.78V24.83h3.49V36.42a6,6,0,0,1-1.15,3.95A4.23,4.23,0,0,1,180.17,41.71Z" fill="#fff"/><path d="M195.15,37.68h-7.63V24.83h7.63v2.79H191v2h3.85v2.78H191v2.43h4.16Z" fill="#fff"/><path d="M203.12,27.49a2.21,2.21,0,0,0-1.93,1,4.93,4.93,0,0,0-.69,2.8q0,3.71,2.82,3.71a5.73,5.73,0,0,0,1.65-.24c.53-.16,1.07-.35,1.61-.57v2.93a8.86,8.86,0,0,1-3.64.72,5.77,5.77,0,0,1-4.46-1.69,6.94,6.94,0,0,1-1.55-4.88,7.82,7.82,0,0,1,.75-3.51,5.39,5.39,0,0,1,2.16-2.32,6.56,6.56,0,0,1,3.32-.81,9.19,9.19,0,0,1,4,.9l-1.06,2.73a12.07,12.07,0,0,0-1.43-.56A5,5,0,0,0,203.12,27.49Z" fill="#fff"/><path d="M214.75,37.68h-3.47v-10h-3.14V24.83h9.74v2.84h-3.13Z" fill="#fff"/><path d="M235.3,31a6.64,6.64,0,0,1-1.77,5,6.8,6.8,0,0,1-5,1.74h-4.16V24.83h4.45a6.76,6.76,0,0,1,4.78,1.58A6,6,0,0,1,235.3,31Zm-3.6.13a4.1,4.1,0,0,0-.7-2.62,2.6,2.6,0,0,0-2.12-.86h-1v7.2h.78a2.78,2.78,0,0,0,2.32-.92A4.42,4.42,0,0,0,231.7,31.11Z" fill="#fff"/><path d="M245.23,37.68H237.6V24.83h7.63v2.79h-4.16v2h3.85v2.78h-3.85v2.43h4.16Z" fill="#fff"/><path d="M253.15,37.68h-3.47v-10h-3.14V24.83h9.74v2.84h-3.13Z" fill="#fff"/><path d="M266,37.68l-.63-2.41h-4.18l-.65,2.41h-3.81l4.19-12.9h4.63l4.25,12.9Zm-1.35-5.26-.56-2.11c-.13-.46-.28-1.07-.47-1.81s-.3-1.28-.36-1.6c-.05.29-.16.79-.31,1.47s-.5,2-1,4.05Z" fill="#fff"/><path d="M271.19,37.68V24.83h3.48V37.68Z" fill="#fff"/><path d="M277.45,37.68V24.83h3.47V34.88h4.95v2.8Z" fill="#fff"/><path d="M296.33,33.78a3.76,3.76,0,0,1-.61,2.12A3.9,3.9,0,0,1,294,37.34a6.58,6.58,0,0,1-2.69.52,10.86,10.86,0,0,1-2.15-.18,8,8,0,0,1-1.81-.63V34a10.19,10.19,0,0,0,2.07.8,7.66,7.66,0,0,0,2,.28,2,2,0,0,0,1.13-.26.83.83,0,0,0,.36-.69.78.78,0,0,0-.15-.47,1.73,1.73,0,0,0-.46-.4c-.22-.13-.79-.41-1.71-.82a8.1,8.1,0,0,1-1.89-1.11,3.4,3.4,0,0,1-.93-1.23,4.1,4.1,0,0,1-.3-1.64,3.29,3.29,0,0,1,1.29-2.77,5.71,5.71,0,0,1,3.55-1,9.88,9.88,0,0,1,4.07.92l-1.06,2.68a7.73,7.73,0,0,0-3.11-.83,1.64,1.64,0,0,0-1,.24.73.73,0,0,0-.31.59.86.86,0,0,0,.39.68A15.62,15.62,0,0,0,293.38,30a5.74,5.74,0,0,1,2.3,1.6A3.43,3.43,0,0,1,296.33,33.78Z" fill="#fff"/></g></g></svg>